<svg width="22" height="20" viewBox="0 0 22 20" fill="none" xmlns="http://www.w3.org/2000/svg">
<path d="M10.9932 3.15567L10.2303 3.80221C10.4203 4.0264 10.6993 4.15567 10.9932 4.15567C11.287 4.15567 11.566 4.0264 11.756 3.80221L10.9932 3.15567ZM2.2642 10.6493L3.05654 10.0392L2.2642 10.6493ZM19.7221 10.6493L18.9298 10.0392L19.7221 10.6493ZM10.4721 18.7039L11.1385 17.9583L10.4721 18.7039ZM10.8502 18.9791L10.5619 19.9367L10.8502 18.9791ZM11.5142 18.7039L10.8478 17.9583L11.5142 18.7039ZM11.1361 18.9791L11.4244 19.9367L11.1361 18.9791ZM11.8036 3.84523C12.1323 3.40143 12.039 2.77518 11.5952 2.44644C11.1514 2.11771 10.5252 2.21098 10.1964 2.65477L11.8036 3.84523ZM8.95898 6.00537L9.76254 6.6006V6.6006L8.95898 6.00537ZM9.34855 9.11233L8.71913 9.88939L9.34855 9.11233ZM12.0122 11.2699L11.3828 12.047L12.0122 11.2699ZM12.7322 13.7384L11.7824 13.4257L12.7322 13.7384ZM10.0502 18.6873C9.87745 19.2119 10.1627 19.7771 10.6873 19.9498C11.2119 20.1226 11.7771 19.8373 11.9498 19.3127L10.0502 18.6873ZM10.9932 3.15567L11.756 2.50914C9.46347 -0.195984 5.50088 -1.02156 2.50163 1.56489L3.15469 2.32219L3.80776 3.07949C5.81861 1.34541 8.52412 1.78903 10.2303 3.80221L10.9932 3.15567ZM3.15469 2.32219L2.50163 1.56489C-0.402227 4.06908 -0.821684 8.28061 1.47186 11.2594L2.2642 10.6493L3.05654 10.0392C1.41562 7.90805 1.70152 4.89585 3.80776 3.07949L3.15469 2.32219ZM19.7221 10.6493L20.5144 11.2594C22.7993 8.29193 22.4448 4.04794 19.4743 1.55606L18.8316 2.32219L18.1889 3.08832C20.3146 4.87154 20.5794 7.89672 18.9298 10.0392L19.7221 10.6493ZM18.8316 2.32219L19.4743 1.55606C16.4422 -0.987466 12.5304 -0.204933 10.2303 2.50914L10.9932 3.15567L11.756 3.80221C13.4546 1.79798 16.1248 1.35676 18.1889 3.08832L18.8316 2.32219ZM2.2642 10.6493L1.47186 11.2594C2.344 12.3921 4.04666 14.0942 5.68337 15.6535C7.3391 17.2308 8.99103 18.7213 9.80568 19.4495L10.4721 18.7039L11.1385 17.9583C10.3308 17.2364 8.69663 15.7618 7.06289 14.2054C5.41015 12.6309 3.82002 11.0308 3.05654 10.0392L2.2642 10.6493ZM11.5142 18.7039L12.1806 19.4495C12.9953 18.7213 14.6472 17.2308 16.3029 15.6535C17.9396 14.0942 19.6423 12.3921 20.5144 11.2594L19.7221 10.6493L18.9298 10.0392C18.1663 11.0308 16.5762 12.6309 14.9234 14.2054C13.2897 15.7618 11.6555 17.2364 10.8478 17.9583L11.5142 18.7039ZM10.4721 18.7039L9.80568 19.4495C9.88468 19.5201 9.9868 19.6124 10.0844 19.6866C10.1937 19.7696 10.3511 19.8732 10.5619 19.9367L10.8502 18.9791L11.1385 18.0216C11.1889 18.0368 11.2297 18.0557 11.2589 18.072C11.2857 18.087 11.299 18.0976 11.2946 18.0942C11.2897 18.0905 11.2762 18.0798 11.2477 18.0551C11.219 18.0303 11.1856 18.0004 11.1385 17.9583L10.4721 18.7039ZM11.5142 18.7039L10.8478 17.9583C10.8007 18.0004 10.7673 18.0303 10.7386 18.0551C10.7101 18.0798 10.6966 18.0905 10.6917 18.0942C10.6873 18.0976 10.7006 18.087 10.7274 18.072C10.7567 18.0557 10.7975 18.0368 10.8478 18.0216L11.1361 18.9791L11.4244 19.9367C11.6352 19.8732 11.7926 19.7696 11.9019 19.6866C11.9995 19.6124 12.1016 19.5201 12.1806 19.4495L11.5142 18.7039ZM10.8502 18.9791L10.5619 19.9367C10.8423 20.0211 11.144 20.0211 11.4244 19.9367L11.1361 18.9791L10.8478 18.0216C10.9434 17.9928 11.0429 17.9928 11.1385 18.0216L10.8502 18.9791ZM11 3.25L10.1964 2.65477L8.15543 5.41014L8.95898 6.00537L9.76254 6.6006L11.8036 3.84523L11 3.25ZM9.34855 9.11233L8.71913 9.88939L11.3828 12.047L12.0122 11.2699L12.6417 10.4929L9.97797 8.33526L9.34855 9.11233ZM12.7322 13.7384L11.7824 13.4257L10.0502 18.6873L11 19L11.9498 19.3127L13.6821 14.0511L12.7322 13.7384ZM12.0122 11.2699L11.3828 12.047C11.7843 12.3722 11.948 12.9226 11.7824 13.4257L12.7322 13.7384L13.6821 14.0511C14.1053 12.7656 13.6942 11.3454 12.6417 10.4929L12.0122 11.2699ZM8.95898 6.00537L8.15543 5.41014C7.11817 6.81044 7.36365 8.79145 8.71913 9.88939L9.34855 9.11233L9.97797 8.33526C9.45893 7.91484 9.35947 7.14475 9.76254 6.6006L8.95898 6.00537Z" fill="#F84963"/>
</svg>
