<svg width="40" height="70" viewBox="0 0 651 800" fill="none" xmlns="http://www.w3.org/2000/svg">
<path d="M271.993 246.608C235.545 270.91 155.508 241.816 155.508 241.816L269.497 373.553H295.139L409.124 241.816C409.124 241.816 308.444 222.306 271.993 246.608Z" fill="black" fill-opacity="0.466667"/>
<path d="M536.938 0C476.748 0 427.491 47.2042 423.932 106.514H9.10963C5.53552 106.514 2.30166 108.602 0.829259 111.836C-0.656692 115.088 -0.117716 118.897 2.22187 121.589L254.98 413.687V733.688C228.482 735.929 209.657 741.51 209.657 748.069C209.657 748.701 209.876 749.297 210.204 749.893C177.332 754.858 155.775 763.134 155.775 772.487C155.775 787.686 212.424 800.002 282.315 800.002C352.206 800.002 408.865 787.685 408.865 772.487C408.865 762.851 386.05 754.405 351.559 749.493C351.745 749.031 351.887 748.55 351.887 748.07C351.887 741.787 334.48 736.413 309.654 733.992V413.707L483.208 213.141C499.671 222.021 518.1 226.699 536.938 226.699C599.443 226.699 650.291 175.851 650.291 113.351C650.291 50.8475 599.451 0 536.938 0ZM303.495 392.97H261.16L29.0473 124.739H535.603L303.495 392.97ZM536.938 208.471C522.512 208.471 508.434 205.054 495.576 198.839L562.415 121.575C564.756 118.888 565.298 115.079 563.813 111.827C562.336 108.592 559.088 106.505 555.528 106.505H442.157C445.69 57.264 486.792 18.2153 536.938 18.2153C589.388 18.2153 632.066 60.8984 632.066 113.34C632.065 165.781 589.388 208.471 536.938 208.471Z" fill="black" fill-opacity="0.466667"/>
</svg>
