<svg width="34" height="40" viewBox="0 0 34 40" fill="none" xmlns="http://www.w3.org/2000/svg">
<path d="M26.6 31.1354C28.8402 31.1354 29.9603 31.1354 30.816 30.7301C31.5686 30.3736 32.1805 29.8047 32.564 29.1049C33 28.3095 33 27.2681 33 25.1854V7.33542C33 5.25273 33 4.21138 32.564 3.41589C32.1805 2.71617 31.5686 2.14727 30.816 1.79074C29.9603 1.38542 28.8402 1.38542 26.6 1.38542H15.4C13.1598 1.38542 12.0397 1.38542 11.184 1.79074C10.4314 2.14727 9.81947 2.71617 9.43597 3.41589C9 4.21138 9 5.25273 9 7.33542M7.4 38.5729H18.6C20.8402 38.5729 21.9603 38.5729 22.816 38.1676C23.5686 37.8111 24.1805 37.2422 24.564 36.5425C25 35.747 25 34.7056 25 32.6229V14.7729C25 12.6902 25 11.6489 24.564 10.8534C24.1805 10.1537 23.5686 9.58477 22.816 9.22824C21.9603 8.82292 20.8402 8.82292 18.6 8.82292H7.4C5.15979 8.82292 4.03968 8.82292 3.18404 9.22824C2.43139 9.58477 1.81947 10.1537 1.43597 10.8534C1 11.6489 1 12.6902 1 14.7729V32.6229C1 34.7056 1 35.747 1.43597 36.5425C1.81947 37.2422 2.43139 37.8111 3.18404 38.1676C4.03968 38.5729 5.15979 38.5729 7.4 38.5729Z" stroke="currentColor" stroke-width="2"/>
</svg>
