<svg width="30" height="30" viewBox="0 0 30 30" fill="none" xmlns="http://www.w3.org/2000/svg">
<path d="M4.39739 1.67818L4.85138 2.56919L4.85138 2.56919L4.39739 1.67818ZM1.67818 4.39739L0.787175 3.9434L0.787175 3.9434L1.67818 4.39739ZM25.6026 28.3218L26.0566 29.2128V29.2128L25.6026 28.3218ZM28.3218 25.6026L27.4308 25.1486L28.3218 25.6026ZM4.39739 28.3218L4.85138 27.4308L4.39739 28.3218ZM1.67818 25.6026L2.56919 25.1486L1.67818 25.6026ZM30 15C30 14.4477 29.5523 14 29 14C28.4477 14 28 14.4477 28 15H30ZM15 2C15.5523 2 16 1.55228 16 1C16 0.447715 15.5523 0 15 0V2ZM15.3939 12.6614L16.3426 12.9776V12.9776L15.3939 12.6614ZM16.1138 10.5017L15.1651 10.1854L15.1651 10.1854L16.1138 10.5017ZM16.8566 9.29975L17.5637 10.0069L17.5637 10.0069L16.8566 9.29975ZM24.0306 2.12577L23.3235 1.41866L23.3235 1.41866L24.0306 2.12577ZM27.8742 5.9694L28.5813 6.67651V6.67651L27.8742 5.9694ZM20.7003 13.1434L19.9931 12.4363V12.4363L20.7003 13.1434ZM19.4983 13.8862L19.8146 14.8349H19.8146L19.4983 13.8862ZM17.3386 14.6061L17.6549 15.5548L17.6549 15.5548L17.3386 14.6061ZM20.3062 13.5111L20.9085 14.3095L20.3062 13.5111ZM20.0035 13.6982L19.5588 12.8026V12.8026L20.0035 13.6982ZM27.8742 2.12577L27.1671 2.83288V2.83288L27.8742 2.12577ZM28.8002 3.19427L29.6962 2.75025V2.75025L28.8002 3.19427ZM28.8002 4.9009L29.6962 5.34492V5.34492L28.8002 4.9009ZM25.0991 1.19983L25.5431 2.09585V2.09585L25.0991 1.19983ZM26.8057 1.19983L26.3617 2.09585L26.3617 2.09585L26.8057 1.19983ZM16.3017 9.99651L17.1974 10.4412V10.4412L16.3017 9.99651ZM16.4889 9.69376L15.6905 9.09152L16.4889 9.69376ZM15.0358 14.3819L15.9777 14.046L15.0358 14.3819ZM15.6181 14.9642L15.2822 15.9061L15.6181 14.9642ZM10.9556 29V30H19.0444V29V28H10.9556V29ZM1 10.9556H0V19.0444H1H2V10.9556H1ZM10.9556 1V0C9.22967 0 7.87512 -0.000777721 6.78738 0.0880938C5.68797 0.177919 4.77337 0.364284 3.9434 0.787176L4.39739 1.67818L4.85138 2.56919C5.35242 2.3139 5.97452 2.16117 6.95024 2.08145C7.93765 2.00078 9.19667 2 10.9556 2V1ZM1 10.9556H2C2 9.19667 2.00078 7.93765 2.08145 6.95024C2.16117 5.97452 2.3139 5.35242 2.56919 4.85138L1.67818 4.39739L0.787175 3.9434C0.364284 4.77337 0.177919 5.68797 0.0880938 6.78738C-0.000777721 7.87512 0 9.22967 0 10.9556H1ZM4.39739 1.67818L3.9434 0.787175C2.58445 1.47959 1.47959 2.58446 0.787175 3.9434L1.67818 4.39739L2.56919 4.85138C3.06986 3.86876 3.86876 3.06986 4.85138 2.56919L4.39739 1.67818ZM19.0444 29V30C20.7703 30 22.1249 30.0008 23.2126 29.9119C24.312 29.8221 25.2266 29.6357 26.0566 29.2128L25.6026 28.3218L25.1486 27.4308C24.6476 27.6861 24.0255 27.8388 23.0498 27.9185C22.0624 27.9992 20.8033 28 19.0444 28V29ZM29 19.0444H28C28 20.8033 27.9992 22.0624 27.9185 23.0498C27.8388 24.0255 27.6861 24.6476 27.4308 25.1486L28.3218 25.6026L29.2128 26.0566C29.6357 25.2266 29.8221 24.312 29.9119 23.2126C30.0008 22.1249 30 20.7703 30 19.0444H29ZM25.6026 28.3218L26.0566 29.2128C27.4155 28.5204 28.5204 27.4155 29.2128 26.0566L28.3218 25.6026L27.4308 25.1486C26.9301 26.1312 26.1312 26.9301 25.1486 27.4308L25.6026 28.3218ZM10.9556 29V28C9.19667 28 7.93765 27.9992 6.95024 27.9185C5.97452 27.8388 5.35242 27.6861 4.85138 27.4308L4.39739 28.3218L3.9434 29.2128C4.77337 29.6357 5.68797 29.8221 6.78738 29.9119C7.87512 30.0008 9.22967 30 10.9556 30V29ZM1 19.0444H0C0 20.7703 -0.000777721 22.1249 0.0880938 23.2126C0.177919 24.312 0.364284 25.2266 0.787175 26.0566L1.67818 25.6026L2.56919 25.1486C2.3139 24.6476 2.16117 24.0255 2.08145 23.0498C2.00078 22.0624 2 20.8033 2 19.0444H1ZM4.39739 28.3218L4.85138 27.4308C3.86876 26.9301 3.06986 26.1312 2.56919 25.1486L1.67818 25.6026L0.787175 26.0566C1.47959 27.4155 2.58445 28.5204 3.9434 29.2128L4.39739 28.3218ZM29 19.0444H30V15H29H28V19.0444H29ZM10.9556 1V2H15V1V0H10.9556V1ZM15.3939 12.6614L16.3426 12.9776L17.0625 10.8179L16.1138 10.5017L15.1651 10.1854L14.4452 12.3451L15.3939 12.6614ZM16.8566 9.29975L17.5637 10.0069L24.7377 2.83288L24.0306 2.12577L23.3235 1.41866L16.1495 8.59264L16.8566 9.29975ZM27.8742 5.9694L27.1671 5.26229L19.9931 12.4363L20.7003 13.1434L21.4074 13.8505L28.5813 6.67651L27.8742 5.9694ZM19.4983 13.8862L19.1821 12.9375L17.0224 13.6574L17.3386 14.6061L17.6549 15.5548L19.8146 14.8349L19.4983 13.8862ZM20.7003 13.1434L19.9931 12.4363C19.7828 12.6466 19.7425 12.6837 19.704 12.7128L20.3062 13.5111L20.9085 14.3095C21.0837 14.1773 21.2348 14.023 21.4074 13.8505L20.7003 13.1434ZM19.4983 13.8862L19.8146 14.8349C20.0461 14.7577 20.2516 14.6915 20.4482 14.5939L20.0035 13.6982L19.5588 12.8026C19.5155 12.824 19.4643 12.8435 19.1821 12.9375L19.4983 13.8862ZM20.3062 13.5111L19.704 12.7128C19.6585 12.7472 19.6099 12.7772 19.5588 12.8026L20.0035 13.6982L20.4482 14.5939C20.6101 14.5135 20.7642 14.4183 20.9085 14.3095L20.3062 13.5111ZM27.8742 2.12577L27.1671 2.83288C27.7481 3.41391 27.8553 3.5398 27.9042 3.63829L28.8002 3.19427L29.6962 2.75025C29.4649 2.28354 29.0482 1.88551 28.5813 1.41867L27.8742 2.12577ZM27.8742 5.9694L28.5813 6.67651C29.0482 6.20966 29.4649 5.81163 29.6962 5.34492L28.8002 4.9009L27.9042 4.45688C27.8553 4.55537 27.7481 4.68127 27.1671 5.26229L27.8742 5.9694ZM28.8002 3.19427L27.9041 3.63829C28.0319 3.89619 28.0319 4.19898 27.9041 4.45689L28.8002 4.9009L29.6962 5.34492C30.1013 4.52746 30.1013 3.56771 29.6962 2.75025L28.8002 3.19427ZM24.0306 2.12577L24.7377 2.83288C25.3187 2.25186 25.4446 2.14465 25.5431 2.09585L25.0991 1.19983L24.6551 0.303813C24.1884 0.535087 23.7903 0.951833 23.3235 1.41866L24.0306 2.12577ZM27.8742 2.12577L28.5813 1.41867C28.1145 0.951829 27.7165 0.535087 27.2497 0.303813L26.8057 1.19983L26.3617 2.09585C26.4602 2.14465 26.5861 2.25186 27.1671 2.83288L27.8742 2.12577ZM25.0991 1.19983L25.5431 2.09585C25.801 1.96805 26.1038 1.96805 26.3617 2.09585L26.8057 1.19983L27.2497 0.303813C26.4323 -0.101271 25.4725 -0.101271 24.6551 0.303813L25.0991 1.19983ZM16.1138 10.5017L17.0625 10.8179C17.1565 10.5358 17.176 10.4845 17.1974 10.4412L16.3017 9.99651L15.4061 9.55181C15.3085 9.74837 15.2423 9.95394 15.1651 10.1854L16.1138 10.5017ZM16.8566 9.29975L16.1495 8.59264C15.977 8.76519 15.8227 8.91632 15.6905 9.09152L16.4889 9.69376L17.2872 10.296C17.3163 10.2575 17.3534 10.2172 17.5637 10.0069L16.8566 9.29975ZM16.3017 9.99651L17.1974 10.4412C17.2228 10.3901 17.2528 10.3415 17.2872 10.296L16.4889 9.69376L15.6905 9.09152C15.5817 9.23582 15.4865 9.38991 15.4061 9.55181L16.3017 9.99651ZM15.3939 12.6614L14.4452 12.3451C14.295 12.7957 14.1595 13.1991 14.0822 13.5279C14.0085 13.8418 13.9368 14.2772 14.0939 14.7178L15.0358 14.3819L15.9777 14.046C16.0235 14.1744 15.9743 14.219 16.0292 13.9854C16.0806 13.7667 16.1798 13.4659 16.3426 12.9776L15.3939 12.6614ZM17.3386 14.6061L17.0224 13.6574C16.5341 13.8202 16.2333 13.9194 16.0146 13.9708C15.781 14.0257 15.8256 13.9765 15.954 14.0223L15.6181 14.9642L15.2822 15.9061C15.7228 16.0632 16.1582 15.9915 16.4721 15.9178C16.8009 15.8405 17.2043 15.705 17.6549 15.5548L17.3386 14.6061ZM15.0358 14.3819L14.0939 14.7178C14.2916 15.2722 14.7278 15.7084 15.2822 15.9061L15.6181 14.9642L15.954 14.0223C15.965 14.0263 15.9737 14.035 15.9777 14.046L15.0358 14.3819Z" fill="currentColor"/>
</svg>
