<svg width="47" height="47" viewBox="0 0 634 695" fill="none" xmlns="http://www.w3.org/2000/svg">
<path
        d="M188.019 586.606L186.892 585.567L183.867 582.776C183.007 581.946 181.951 580.983 179.998 580.336C178.279 579.767 175.989 579.48 172.646 579.296C165.882 578.924 153.349 578.925 128.896 578.925H82.8223V505.627C82.8223 469.452 82.7899 450.15 82.4756 439.587C82.3195 434.342 82.0902 431.057 81.7178 428.879C81.3175 426.539 80.6909 425.111 79.5762 423.852L79.5664 423.842L79.5576 423.832C79.1606 423.39 78.6178 422.952 78.1709 422.606C77.6624 422.212 77.032 421.754 76.3105 421.248C74.8643 420.233 72.9592 418.962 70.7402 417.523C66.2964 414.641 60.5104 411.034 54.4385 407.366C48.4108 403.725 42.9527 400.322 39.0137 397.773C37.3417 396.691 35.9644 395.775 34.9404 395.067C35.1717 394.567 35.4414 393.993 35.7471 393.345C36.9691 390.756 38.7416 387.075 40.9346 382.56C45.3185 373.535 51.3633 361.219 58.0029 347.735L82.0664 298.972L82.3779 298.34L82.4209 297.637L83.3418 282.624V282.616L83.3428 282.607C85.942 236.777 98.6708 194.948 120.981 157.856H120.98C161.076 91.3826 226.195 47.0637 304.098 33.5444H304.099C312.94 32.0663 328.185 31.3003 343.628 31.3003C359.056 31.3003 374.286 32.0652 383.131 33.5405L385.797 34.0181C441.637 44.2789 487.859 68.3914 526.951 107.633L526.955 107.637C566.393 147.094 591.582 196.651 601.459 254.169C602.92 263.116 603.677 278.512 603.677 294.102C603.677 309.69 602.921 325.084 601.46 334.031L600.941 336.955C589.799 398.169 562.205 449.072 518.808 488.674L516.974 490.328C512.592 494.293 507.645 498.868 505.31 501.11V501.111L500.353 505.723L499.237 506.761V683.657L500.589 684.708L504.008 687.365C507.341 690.015 511.159 691.405 514.949 690.7C518.809 689.981 521.766 687.255 523.626 683.497H523.624C524.383 682.022 524.744 679.987 525.002 677.316C525.28 674.434 525.475 670.253 525.615 664.136C525.896 651.881 525.961 631.509 525.961 597.446L526.09 518.248L536.6 509.06L536.622 509.041L536.645 509.02C543.067 503.206 554.217 491.806 561.288 483.449L562.962 481.465C597.339 440.4 618.133 394.564 627.636 339.208L628.087 336.522L628.088 336.513C629.712 326.463 630.5 310.192 630.5 294.035C630.5 277.873 629.712 261.478 628.091 251.172L628.09 251.167C606.94 117.972 502.741 18.002 371.06 5.08545L371.061 5.08447C357.456 3.7368 332.647 3.46529 320.31 4.54932V4.55029C251.237 10.602 189.186 39.7977 140.606 89.019C89.7625 140.528 61.8165 203.774 56.6328 278.58L55.7588 291.181L30.0273 343.444V343.445C22.7895 358.005 16.2393 371.508 11.4951 381.544C9.12371 386.561 7.19616 390.728 5.85742 393.734C5.18993 395.233 4.65654 396.47 4.28516 397.391C4.10138 397.847 3.94173 398.264 3.82227 398.615C3.76334 398.788 3.69921 398.987 3.64648 399.19C3.61582 399.308 3.50001 399.743 3.5 400.263C3.5 404.348 6.03219 407.582 10.4844 411.188C15.0109 414.854 22.4536 419.625 34.124 426.647L34.127 426.649L56.0977 439.846V515.46C56.0977 542.434 56.197 562.059 56.4277 575.229C56.543 581.809 56.6915 586.813 56.8799 590.33C56.9738 592.083 57.0795 593.512 57.2021 594.601C57.2632 595.144 57.3338 595.647 57.418 596.085C57.4839 596.429 57.599 596.96 57.8232 597.478H57.8223C58.438 598.93 59.463 600.285 60.5293 601.363C61.59 602.435 62.9284 603.471 64.3682 604.098C65.1231 604.431 66.0562 604.588 66.7559 604.689C67.5854 604.808 68.6219 604.912 69.8408 605.005C72.2858 605.192 75.6404 605.347 79.8936 605.472C88.4097 605.723 100.679 605.856 116.799 605.856H161.294V640.356C161.294 653.522 161.426 663.277 161.691 670.007C161.824 673.367 161.992 676.026 162.201 678C162.305 678.985 162.425 679.853 162.568 680.578C162.692 681.207 162.888 682.03 163.261 682.749H163.26C165.263 686.642 168.232 689.559 172.098 690.466C175.984 691.378 179.871 690.049 183.247 687.365L186.666 684.708L188.019 683.657V586.606Z" fill="#0007" stroke-width="7"/>
<path
        d="M336.98 109.786C340.831 113.259 346.923 113.438 350.426 109.899C352.231 108.075 353.38 105.541 353.999 101.925C354.617 98.3157 354.713 93.5875 354.384 87.3315C354.187 82.7702 353.99 80.077 353.409 78.1772C352.81 76.2172 351.805 75.111 350.131 73.6899L350.13 73.6909C347.871 71.7447 345.922 70.6551 343.892 70.5825C341.857 70.5098 339.865 71.4618 337.534 73.2788L337.527 73.2837C336.712 73.9428 336.037 74.504 335.519 75.2046C334.989 75.9199 334.641 76.754 334.409 77.9448C333.954 80.2804 333.923 84.1309 333.923 91.4771C333.923 98.4358 333.987 102.337 334.39 104.811C334.593 106.061 334.887 106.976 335.317 107.751C335.748 108.526 336.299 109.131 336.97 109.775L336.975 109.781L336.98 109.786Z" fill="#0007" stroke="#0007"/>
<path
        d="M300.115 123.852C302.744 124.498 305.534 123.521 307.642 121.737C309.752 119.952 311.254 117.297 311.254 114.464C311.254 113.861 311.096 113.061 310.836 112.145C310.574 111.218 310.197 110.135 309.734 108.952C308.808 106.586 307.532 103.793 306.122 101.001C304.711 98.2088 303.163 95.4102 301.693 93.0312C300.229 90.6622 298.824 88.6773 297.697 87.5381C295.999 85.8225 293.453 85.0292 290.937 85.0811C288.419 85.133 285.852 86.0321 284.099 87.8037C281.875 90.0513 281.014 92.738 281.544 96.2842C282.068 99.7859 283.95 104.139 287.176 109.795L287.179 109.8C290.392 115.3 292.36 118.473 294.145 120.431C295.972 122.434 297.614 123.168 300.103 123.848L300.115 123.852Z" fill="#0007" stroke="#0007"/>
<path
        d="M384.736 124.084C386.567 124.3 388.422 123.717 390.3 122.397C394.026 119.779 397.983 114.164 402.325 105.524C404.356 101.552 405.537 99.0738 406.03 97.1489C406.538 95.1656 406.319 93.7629 405.634 91.9644C404.333 88.1073 401.61 85.7421 398.457 85.1401C395.302 84.5381 391.814 85.7182 389.02 88.7476L389.019 88.7485C386.475 91.5227 383.228 96.7526 380.626 101.778C379.322 104.296 378.172 106.779 377.346 108.897C376.53 110.989 376.002 112.797 376.001 113.932C376.001 115.097 376.394 116.437 377.023 117.708C377.651 118.978 378.534 120.217 379.561 121.19C381.19 122.87 382.909 123.87 384.736 124.084Z" fill="#0007" stroke="#0007"/>
<path
        d="M271.042 155.09C272.11 155.09 273.262 154.702 274.37 154.099C275.483 153.492 276.584 152.649 277.557 151.691C278.53 150.734 279.386 149.651 280.002 148.558C280.615 147.471 281.01 146.337 281.01 145.289C281.01 143.988 280.858 142.82 280.445 141.706C280.031 140.59 279.366 139.555 278.375 138.502C276.412 136.416 273.128 134.225 267.875 131.173C262.093 127.787 258.204 125.766 255.235 124.816C252.228 123.855 250.13 123.982 247.967 124.898V124.899C247.122 125.219 246.174 126.06 245.346 127.047C244.497 128.059 243.711 129.3 243.228 130.485V130.486C242.438 132.35 242.038 133.663 242.074 134.906C242.11 136.161 242.589 137.279 243.383 138.75L243.387 138.758C243.708 139.33 244.322 139.999 245.109 140.718C245.906 141.445 246.918 142.256 248.075 143.108C250.389 144.815 253.305 146.71 256.291 148.477C259.276 150.243 262.34 151.888 264.953 153.093C266.258 153.695 267.458 154.19 268.483 154.536C269.495 154.878 270.381 155.09 271.042 155.09Z" fill="#0007" stroke="#0007"/>
<path
        d="M283.851 207.103C299.354 252.355 355.157 265.491 388.56 231.739C400.095 220.084 406.061 205.342 406.062 188.342L406.064 187.492C406.011 169.69 400.17 155.343 388.167 143.213L388.167 143.212C374.254 129.019 354.771 122.187 335.679 124.464V124.465C311.795 127.281 290.736 145.768 283.188 170.254V170.255C281.719 174.913 281.095 181.75 281.227 188.581C281.359 195.416 282.249 202.315 283.849 207.099L283.85 207.103H283.851ZM372.345 218.401C351.426 238.094 317.12 231.136 305.425 204.876L305.424 204.875C303.782 201.225 302.886 198.916 302.454 196.344C302.074 194.086 302.048 191.605 302.224 187.814L302.312 186.107V186.101C302.574 179.692 303.488 174.606 305.348 170.11C307.091 165.899 309.676 162.18 313.376 158.366L314.131 157.602L314.134 157.599C326.872 144.728 344.794 141.446 361.435 149.065L361.436 149.066C387.85 161.044 393.702 197.599 372.843 217.925L372.345 218.401Z" fill="#0007" stroke="#0007"/>
<path
        d="M413.5 154.53C414.593 154.914 415.735 154.952 417.127 154.774L417.739 154.685L417.742 154.684C419.197 154.439 421.381 153.589 423.838 152.428C426.31 151.26 429.105 149.754 431.803 148.162C434.5 146.57 437.107 144.888 439.2 143.367C440.247 142.606 441.169 141.882 441.913 141.227C442.558 140.659 443.087 140.127 443.443 139.655L443.585 139.456L443.592 139.445C444.725 137.655 445.087 135.037 444.834 132.598C444.582 130.167 443.701 127.759 442.182 126.443L442.172 126.433L442.16 126.424C440.951 125.49 438.921 124.773 436.934 124.402C435.93 124.214 434.916 124.111 433.993 124.116C433.078 124.12 432.22 124.23 431.547 124.495V124.496C428.603 125.645 422.913 128.89 417.853 132.094C415.316 133.701 412.922 135.306 411.094 136.646C410.18 137.315 409.401 137.923 408.813 138.434C408.52 138.69 408.269 138.927 408.07 139.139C407.884 139.339 407.721 139.542 407.621 139.737V139.736C406.458 141.878 406.065 143.988 406.451 146.045C406.836 148.097 407.985 150.043 409.809 151.885C411.141 153.231 412.258 154.093 413.5 154.53Z" fill="#0007" stroke="#0007"/>
<path
        d="M249.477 197.608C253.492 197.608 256.719 197.508 259.298 197.229C261.873 196.95 263.841 196.49 265.318 195.744C266.814 194.988 267.797 193.943 268.392 192.539C268.978 191.157 269.175 189.457 269.175 187.409C269.175 185.483 268.951 183.858 268.347 182.508C267.736 181.143 266.751 180.093 265.299 179.297C263.861 178.51 261.971 177.974 259.541 177.609C257.107 177.243 254.101 177.045 250.413 176.945L250.414 176.944C246.194 176.811 242.753 176.877 240.081 177.112C237.423 177.345 235.474 177.749 234.272 178.321L234.261 178.326L234.251 178.331C229.314 180.963 227.355 185.862 229.016 190.758L229.017 190.76C229.518 192.212 230.078 193.404 230.905 194.353C231.74 195.312 232.817 195.992 234.3 196.471C237.218 197.414 241.81 197.608 249.477 197.608Z" fill="#0007" stroke="#0007"/>
<path
        d="M438.173 197.608C444.15 197.608 447.899 197.509 450.47 197.155C452.906 196.819 454.322 196.25 455.59 195.302L455.842 195.107L455.852 195.099C460.054 191.561 460.003 184.575 455.885 180.414C455.242 179.763 454.613 179.23 453.847 178.802C453.081 178.375 452.199 178.065 451.061 177.833C448.806 177.374 445.47 177.209 439.894 177.077H439.892C436.403 177.01 432.975 177.01 430.285 177.093C428.94 177.135 427.773 177.197 426.872 177.284C426.422 177.327 426.031 177.377 425.714 177.435C425.433 177.486 425.171 177.553 424.974 177.643V177.642C417.832 180.418 415.582 189.474 420.855 194.802C421.469 195.423 422.08 195.927 422.859 196.321C423.635 196.713 424.553 196.983 425.769 197.17C428.182 197.543 431.875 197.608 438.173 197.608Z" fill="#0007" stroke="#0007"/>
<path
        d="M252.501 250.755C253.157 250.755 254.015 250.563 254.988 250.249C255.971 249.932 257.112 249.476 258.348 248.922C260.822 247.812 263.706 246.291 266.528 244.641C269.35 242.99 272.119 241.204 274.359 239.56C275.479 238.738 276.471 237.947 277.275 237.224C278.072 236.506 278.706 235.835 279.087 235.248C280.809 232.605 281.166 229.692 280.345 227.117C279.525 224.544 277.543 222.345 274.66 221.097L274.659 221.096C273.358 220.537 272.402 220.106 271.665 219.817C270.926 219.529 270.339 219.355 269.769 219.345C269.185 219.335 268.669 219.497 268.073 219.776C267.493 220.048 266.773 220.462 265.808 220.982C256.932 225.766 250.975 229.408 247.234 232.532C243.493 235.657 241.877 238.342 241.876 241.22C241.876 242.306 242.291 243.442 242.939 244.516C243.59 245.594 244.496 246.641 245.53 247.557C247.578 249.372 250.223 250.755 252.501 250.755Z" fill="#0007" stroke="#0007"/>
<path
        d="M435.28 250.755C439.12 250.755 442.296 248.324 443.957 245.191C445.618 242.059 445.817 238.125 443.572 235.077L443.568 235.071L443.563 235.065C443.276 234.698 442.735 234.217 442.047 233.672C441.346 233.117 440.455 232.469 439.436 231.762C437.396 230.347 434.824 228.689 432.188 227.075C429.553 225.461 426.849 223.886 424.547 222.64C422.264 221.404 420.329 220.465 419.25 220.147L419.251 220.146C418.5 219.919 417.403 219.893 416.299 219.994C415.181 220.097 413.988 220.337 413.02 220.687L413.015 220.688C410.362 221.676 408.393 223.887 407.413 226.424C406.433 228.96 406.421 231.876 407.755 234.287C408.119 234.949 408.747 235.69 409.546 236.472C410.351 237.26 411.353 238.112 412.488 238.991C414.76 240.75 417.588 242.638 420.493 244.373C423.399 246.108 426.392 247.696 428.995 248.852C430.297 249.429 431.508 249.903 432.565 250.232C433.615 250.559 434.547 250.755 435.28 250.755Z" fill="#0007" stroke="#0007"/>
<path
        d="M290.652 289.635C293.069 289.789 295.551 289.285 297.134 287.977L297.136 287.975C298.156 287.122 299.542 285.247 301.023 282.921C302.518 280.575 304.149 277.709 305.658 274.818C307.167 271.927 308.558 269.003 309.574 266.538C310.082 265.305 310.5 264.181 310.79 263.23C311.077 262.292 311.254 261.478 311.254 260.884C311.254 253.56 303.604 249.018 296.363 252.052C296.248 252.094 296.144 252.155 296.058 252.216C295.954 252.29 295.846 252.383 295.738 252.486C295.522 252.692 295.275 252.967 295.004 253.296C294.46 253.956 293.793 254.867 293.05 255.952C291.562 258.123 289.748 261.023 287.969 264.086V264.085C284.283 270.337 282.17 275.021 281.546 278.671C281.232 280.506 281.29 282.099 281.728 283.508C282.166 284.921 282.976 286.115 284.116 287.163C285.739 288.659 288.229 289.481 290.652 289.635Z" fill="#0007" stroke="#0007"/>
<path
        d="M394.923 289.936C397.5 290.586 400.292 289.528 402.422 287.668C404.559 285.803 406.124 283.055 406.194 280.163H406.192C406.21 279.498 406.03 278.604 405.723 277.583C405.412 276.547 404.959 275.336 404.406 274.017C403.298 271.379 401.774 268.287 400.133 265.279C398.492 262.271 396.729 259.337 395.141 257.017C394.348 255.858 393.593 254.845 392.917 254.051C392.25 253.27 391.624 252.658 391.084 252.346L391.076 252.341L391.066 252.336C387.066 250.246 382.235 250.94 379.055 253.874L379.05 253.878C377.921 254.951 377.097 256.12 376.622 257.472C376.146 258.824 376.03 260.326 376.269 262.049C376.743 265.473 378.628 269.829 381.984 275.747L381.987 275.75C385.33 281.513 387.298 284.756 389.05 286.697C389.938 287.68 390.781 288.344 391.73 288.836C392.672 289.325 393.697 289.635 394.923 289.937V289.936Z" fill="#0007" stroke="#0007"/>
<path
        d="M336.697 301.097C340.188 304.624 346.534 304.731 350.656 301.261H350.655C351.414 300.66 352.037 300.108 352.518 299.392C353.005 298.666 353.324 297.806 353.538 296.614C353.959 294.267 353.989 290.49 353.989 283.605C353.989 277.175 353.925 273.379 353.557 270.909C353.371 269.666 353.105 268.73 352.717 267.949C352.326 267.164 351.824 266.562 351.205 265.971C348.109 262.98 343.97 261.518 340.825 262.674V262.675C339.334 263.211 338.116 263.765 337.154 264.565C336.178 265.378 335.493 266.417 335.017 267.87C334.545 269.309 334.274 271.162 334.119 273.612C333.964 276.067 333.923 279.153 333.923 283.073C333.923 289.703 333.987 293.565 334.355 296.067C334.541 297.328 334.807 298.271 335.194 299.063C335.584 299.859 336.083 300.476 336.697 301.097Z" fill="#0007" stroke="#0007"/>
<path
        d="M321.984 465.009L325.272 461.688C327.373 459.564 328.565 457.187 328.714 454.699C328.863 452.212 327.962 449.753 326.136 447.479L323.638 444.29L323.344 443.914L322.867 443.907L278.816 443.242L235.149 442.584L232.019 439.666L232.02 439.665C227.923 435.769 227.74 428.991 231.625 425.304L231.631 425.297C232.358 424.595 232.839 424.17 233.802 423.832C234.833 423.47 236.449 423.201 239.445 423.019C245.422 422.656 256.49 422.655 278.406 422.655H323.129L323.421 422.367L344.856 401.241L344.857 401.24C363.147 383.158 367.379 379.687 375.626 375.65C397.43 365.294 419.462 365.551 441.811 376.448C445.377 378.185 448.717 380.411 455.157 386.208C461.609 392.016 471.123 401.364 487.039 417.312C504.122 434.441 513.452 443.703 519.052 448.678C521.848 451.161 523.77 452.627 525.301 453.469C526.887 454.34 528.058 454.543 529.298 454.543C532.35 454.543 534.955 453.535 536.798 451.673C538.64 449.812 539.635 447.184 539.635 444.109C539.635 442.939 539.279 441.754 538.293 440.15C537.322 438.57 535.698 436.518 533.085 433.595C527.853 427.74 518.494 418.217 501.999 401.683L501.998 401.684C481.962 381.572 470.77 370.558 462.065 363.719C453.298 356.831 447.036 354.162 436.919 350.688L436.918 350.688C430.952 348.59 422.903 347.217 414.72 346.649C406.53 346.081 398.129 346.312 391.454 347.459L391.447 347.46C379.485 349.609 365.283 355.239 355.693 361.699L348.879 366.288L325.531 342.954C318.817 336.236 312.23 329.914 306.923 325.084C304.271 322.67 301.931 320.622 300.05 319.083C298.233 317.595 296.755 316.509 295.829 316.068L295.83 316.067C280.51 308.122 263.384 312.795 254.034 327.3V327.299L252.34 329.865L242.556 320.102C236.627 314.177 232.136 310.366 227.791 308.051C223.403 305.713 219.22 304.927 213.973 304.927C204.337 304.927 196.035 308.781 189.667 316.448L189.662 316.455L185.333 321.748L179.145 316.084C173.898 311.252 169.052 307.971 164.101 306.166C159.132 304.354 154.118 304.052 148.575 305.076C134.001 307.691 123.031 321.415 123.031 336.486C123.031 345.959 126.19 353.097 134.066 361.732L139.254 367.559L134.745 370.893L134.736 370.898L134.728 370.905C123.174 379.833 119.114 397.085 125.496 410.395L125.501 410.406C126.347 412.116 128.323 414.819 130.739 417.741C133.175 420.689 136.123 423.936 138.976 426.751C143.368 431.123 146.193 433.747 148.417 435.269C150.72 436.843 152.428 437.271 154.538 437.271C157.621 437.27 160.152 436.381 161.904 434.534C163.648 432.696 164.479 430.055 164.479 426.837C164.479 424.738 164.105 423.08 162.736 421.005C161.42 419.011 159.174 416.614 155.504 412.973L155.501 412.97C150.586 408.135 147.418 404.365 145.7 401.242C144.001 398.155 143.773 395.81 144.558 393.71L144.738 393.256C145.651 391.03 146.809 389.463 148.223 388.433C149.724 387.339 151.608 386.78 154.011 386.78C155.005 386.78 155.8 386.876 156.799 387.324C157.839 387.79 159.143 388.658 161.092 390.299C164.995 393.585 171.236 399.757 182.757 411.332L182.758 411.333C190.907 419.5 197.072 425.93 201.196 430.543C203.26 432.852 204.799 434.69 205.816 436.056C206.326 436.74 206.69 437.287 206.921 437.701C207.037 437.908 207.111 438.065 207.153 438.177C207.199 438.3 207.187 438.318 207.187 438.264C207.187 438.823 207.351 439.518 207.58 440.235C207.816 440.977 208.151 441.835 208.554 442.752C209.362 444.587 210.465 446.716 211.667 448.739L211.672 448.749C214.912 454.068 217.927 457.115 223.474 460.26L230.705 464.377L230.93 464.506L231.19 464.509L276.162 464.907L321.264 465.306L321.687 465.31L321.984 465.009ZM179.707 376.175C163.456 359.755 154.672 350.78 149.947 345.394C145.197 339.979 144.754 338.404 144.754 336.752C144.754 333.654 145.762 331.238 147.445 329.596C149.131 327.951 151.591 326.99 154.668 326.99C155.931 326.99 156.801 327.046 157.989 327.602C159.237 328.185 160.874 329.341 163.542 331.689C168.868 336.378 178.006 345.546 195.905 363.498C205.963 373.661 215.099 382.959 221.72 389.782C225.031 393.194 227.71 395.984 229.56 397.952C230.486 398.937 231.199 399.711 231.677 400.252C231.724 400.305 231.767 400.357 231.809 400.404C231.589 400.542 231.314 400.702 230.989 400.877C229.979 401.419 228.573 402.065 227.032 402.649C223.773 403.884 219.458 406.469 217.255 408.416L217.238 408.432L217.221 408.448L214.381 411.212L179.707 376.175ZM233.49 370.729L233.488 370.728C220.131 357.232 212.697 349.586 208.599 344.835C204.474 340.052 203.927 338.409 203.927 336.885C203.927 331.369 208.432 326.99 214.368 326.99C215.445 326.99 216.277 327.081 217.492 327.712C218.772 328.377 220.491 329.649 223.251 332.116C228.762 337.04 238.169 346.478 256.131 364.562L291.92 400.725H263.044L233.49 370.729ZM294.636 372.726L294.637 372.725C284.637 362.487 278.681 356.237 275.224 352.15C273.494 350.106 272.424 348.642 271.789 347.52C271.16 346.409 270.99 345.692 270.99 345.123C270.99 338.911 275.923 333.897 282.355 333.767C282.368 333.77 282.39 333.775 282.42 333.786C282.52 333.823 282.669 333.892 282.873 334.009C283.281 334.242 283.826 334.615 284.514 335.14C285.885 336.185 287.734 337.765 290.028 339.851C294.611 344.018 300.908 350.149 308.596 357.917L308.598 357.919L332.356 381.797L325.17 389.058L317.862 396.321L294.636 372.726Z" fill="#0007" stroke="#0007" stroke-width="2"/>
<path
        d="M462.237 522.306C465.271 522.306 467.817 521.374 469.621 519.551C471.418 517.735 472.368 515.146 472.44 512.041H472.441C472.478 510.982 472.343 509.969 471.836 508.79C471.343 507.641 470.51 506.367 469.213 504.752C466.627 501.532 462.015 496.743 454.009 488.587L454.01 488.586C449.003 483.46 444.124 478.73 440.312 475.228C438.407 473.478 436.761 472.029 435.494 470.987C434.861 470.467 434.313 470.039 433.868 469.725C433.646 469.568 433.439 469.432 433.252 469.324C433.081 469.224 432.87 469.115 432.653 469.055L432.611 469.043L432.568 469.036C432.359 468.997 432.109 468.998 431.895 469.006C431.656 469.015 431.362 469.038 431.025 469.07C430.349 469.134 429.453 469.245 428.372 469.396C426.206 469.699 423.256 470.171 419.742 470.778C412.712 471.992 403.4 473.755 393.53 475.816V475.815L357.465 483.103H225.17L210.868 468.781L210.866 468.778C206.819 464.756 203.543 461.621 200.818 459.281C198.103 456.95 195.88 455.359 193.94 454.477C191.968 453.581 190.223 453.387 188.542 453.946C186.915 454.487 185.491 455.688 184.047 457.249V457.25C182.583 458.83 181.446 460.331 180.975 462.007C180.488 463.742 180.752 465.514 181.747 467.551C182.726 469.558 184.449 471.893 186.985 474.82C189.529 477.757 192.942 481.346 197.347 485.864C201.763 490.392 206.248 494.758 209.931 498.113C211.772 499.789 213.421 501.221 214.765 502.296C216.052 503.325 217.166 504.115 217.92 504.42V504.421C218.932 504.854 220.55 505.162 223.115 505.405C225.711 505.651 229.383 505.839 234.575 505.98C244.962 506.263 261.511 506.362 287.874 506.362H353.196L353.293 506.342L390.113 498.902H390.112L426.537 491.698L441.544 506.603C448.363 513.493 452.392 517.4 455.235 519.576C456.668 520.672 457.847 521.367 458.973 521.78C460.114 522.198 461.143 522.306 462.237 522.306Z" fill="#0007" stroke="#0007" stroke-width="2"/>
</svg>
