<svg width="30" height="30" viewBox="0 0 30 30" fill="none" xmlns="http://www.w3.org/2000/svg">
<path d="M26.0001 2H19.1667C18.0622 2 17.1667 2.89543 17.1667 4V9.83784C17.1667 10.9424 18.0622 11.8378 19.1667 11.8378H26.0001C27.1046 11.8378 28.0001 10.9424 28.0001 9.83784V4C28.0001 2.89543 27.1046 2 26.0001 2Z" stroke="white" stroke-width="3" stroke-linecap="round" stroke-linejoin="round"/>
<path d="M26.0001 18.1622H19.1667C18.0622 18.1622 17.1667 19.0576 17.1667 20.1622V26C17.1667 27.1046 18.0622 28 19.1667 28H26.0001C27.1046 28 28.0001 27.1046 28.0001 26V20.1622C28.0001 19.0576 27.1046 18.1622 26.0001 18.1622Z" stroke="white" stroke-width="3" stroke-linecap="round" stroke-linejoin="round"/>
<path d="M10.8333 2H4C2.89543 2 2 2.89543 2 4V9.83784C2 10.9424 2.89543 11.8378 4 11.8378H10.8333C11.9379 11.8378 12.8333 10.9424 12.8333 9.83784V4C12.8333 2.89543 11.9379 2 10.8333 2Z" stroke="white" stroke-width="3" stroke-linecap="round" stroke-linejoin="round"/>
<path d="M10.8333 18.1622H4C2.89543 18.1622 2 19.0576 2 20.1622V26C2 27.1046 2.89543 28 4 28H10.8333C11.9379 28 12.8333 27.1046 12.8333 26V20.1622C12.8333 19.0576 11.9379 18.1622 10.8333 18.1622Z" stroke="white" stroke-width="3" stroke-linecap="round" stroke-linejoin="round"/>
</svg>
