<svg width="44" height="46" viewBox="0 0 44 46" fill="none" xmlns="http://www.w3.org/2000/svg">
<path d="M35.3333 14.8561L37.4416 15.5337C39.6416 16.2408 40.7416 16.5943 41.3709 17.436C42 18.2777 42 19.3958 42 21.6319V33.7738C42 36.5398 42 37.9227 41.2451 38.8113C40.9887 39.1129 40.6773 39.3671 40.3267 39.5614C39.2936 40.1333 37.8789 39.9059 35.0491 39.4513C32.2571 39.0026 30.8611 38.7783 29.4773 38.8899C28.9918 38.9291 28.5093 38.9989 28.0333 39.0992C26.6769 39.3848 25.3998 40.0004 22.8458 41.2318C19.5131 42.8386 17.8467 43.6419 16.073 43.8896C15.5387 43.9642 14.9996 44.001 14.4597 44C12.6674 43.9968 10.9152 43.4337 7.41084 42.3072L6.55849 42.0334C4.35842 41.3263 3.25838 40.9728 2.6292 40.1309C2 39.2893 2 38.1712 2 35.9351V25.3724C2 21.8179 2 20.0407 3.08536 19.0848C3.27529 18.9176 3.48464 18.7721 3.70927 18.6512C4.99291 17.9607 6.74153 18.5227 10.2388 19.6467" stroke="white" stroke-width="3"/>
<path d="M8.66663 14.2139C8.66663 7.46836 14.6362 2 22 2C29.3637 2 35.3333 7.46836 35.3333 14.2139C35.3333 20.9066 31.0777 28.7164 24.4382 31.5092C22.8904 32.1604 21.1095 32.1604 19.5617 31.5092C12.9222 28.7164 8.66663 20.9066 8.66663 14.2139Z" stroke="white" stroke-width="3"/>
<path d="M22.0001 19.1414C24.4547 19.1414 26.4446 17.2228 26.4446 14.856C26.4446 12.4893 24.4547 10.5707 22.0001 10.5707C19.5455 10.5707 17.5557 12.4893 17.5557 14.856C17.5557 17.2228 19.5455 19.1414 22.0001 19.1414Z" stroke="white" stroke-width="3"/>
</svg>
