<?xml version="1.0" standalone="no"?>
<!DOCTYPE svg PUBLIC "-//W3C//DTD SVG 20010904//EN"
 "http://www.w3.org/TR/2001/REC-SVG-20010904/DTD/svg10.dtd">
<svg version="1.0" xmlns="http://www.w3.org/2000/svg"
 width="512.000000pt" height="512.000000pt" viewBox="0 0 512.000000 512.000000"
 preserveAspectRatio="xMidYMid meet">
<metadata>
Created by potrace 1.16, written by Peter Selinger 2001-2019
</metadata>
<g transform="translate(0.000000,512.000000) scale(0.100000,-0.100000)"
fill="#000000" stroke="none">
<path d="M1207 5109 c-49 -29 -47 92 -47 -2537 0 -1353 3 -2473 6 -2491 4 -17
18 -42 32 -56 l25 -25 737 0 737 0 27 26 26 27 0 2507 0 2507 -26 27 -27 26
-736 0 c-505 -1 -742 -4 -754 -11z m1343 -414 l0 -225 -136 0 -136 0 -29 -29
c-23 -23 -29 -38 -29 -71 0 -33 6 -48 29 -71 l29 -29 136 0 136 0 0 -155 0
-155 -109 0 c-134 0 -164 -6 -196 -38 -18 -18 -25 -35 -25 -64 0 -88 38 -108
210 -108 l120 0 0 -154 0 -155 -246 -3 -246 -3 -29 -33 c-31 -34 -37 -73 -18
-115 22 -49 37 -52 297 -55 l242 -3 0 -154 0 -153 -141 -4 c-140 -3 -141 -3
-165 -31 -34 -40 -33 -105 2 -141 26 -26 29 -26 165 -26 l139 0 0 -160 0 -160
-134 0 c-130 0 -135 -1 -165 -26 -26 -22 -31 -33 -31 -71 0 -36 6 -50 29 -74
l29 -29 136 0 136 0 0 -155 0 -155 -229 0 c-137 0 -240 -4 -259 -11 -64 -22
-83 -103 -36 -158 l26 -31 249 0 249 0 0 -160 0 -160 -136 0 -136 0 -29 -29
c-41 -41 -41 -101 0 -142 l29 -29 136 0 136 0 0 -155 0 -155 -109 0 c-134 0
-164 -6 -196 -38 -18 -18 -25 -35 -25 -64 0 -88 38 -108 210 -108 l120 0 0
-225 0 -225 -590 0 -590 0 0 2360 0 2360 590 0 590 0 0 -225z"/>
<path d="M3491 4886 c-15 -8 -84 -118 -187 -297 -183 -318 -189 -335 -135
-390 29 -29 30 -29 150 -29 l121 0 0 -1605 0 -1605 -94 0 c-119 0 -150 -6
-181 -38 -51 -50 -42 -76 131 -376 85 -149 169 -283 185 -298 33 -31 74 -36
117 -14 20 10 72 92 191 300 135 235 164 293 163 323 -3 81 -47 103 -204 103
l-98 0 0 1605 0 1605 124 0 c120 0 124 1 150 26 25 26 31 45 27 90 -2 28 -316
574 -342 597 -25 20 -84 22 -118 3z m113 -390 c82 -139 88 -126 -58 -126 -69
0 -126 2 -126 4 0 6 122 216 126 216 2 0 28 -42 58 -94z m66 -3752 c0 -5 -55
-104 -103 -182 l-20 -34 -27 44 c-14 23 -43 73 -64 111 l-38 67 126 0 c69 0
126 -3 126 -6z"/>
</g>
</svg>
