<svg width="46" height="47" viewBox="0 0 46 47" fill="none" xmlns="http://www.w3.org/2000/svg">
<path d="M27.0952 1.83225L27.1026 1.82965C27.3474 1.7429 27.7008 1.60434 28.0629 1.51116C28.2416 1.46518 28.3888 1.43949 28.496 1.43437C28.5221 1.43312 28.5416 1.43549 28.5554 1.43609C28.8133 1.6153 29.0438 1.91311 29.1727 2.28761L40.3839 34.8759C40.5034 35.2237 40.5152 35.5752 40.4426 35.8663L40.4066 35.9868C40.2987 36.2929 40.1108 36.4614 39.9263 36.5268L13.9896 45.7162C13.8282 45.7734 13.6164 45.7706 13.3837 45.6543L13.2824 45.5969C13.0056 45.4226 12.7557 45.1103 12.619 44.7131L1.40776 12.1248C1.28818 11.7772 1.27662 11.4255 1.34899 11.1345L1.38467 11.013C1.49223 10.708 1.67929 10.5395 1.86314 10.4737L27.0952 1.83225Z" stroke="white" stroke-width="2.5"/>
<path d="M16.2497 4.44368L43.7191 4.02427C43.8887 4.02177 44.0882 4.09186 44.2727 4.27659L44.3512 4.36329C44.56 4.61767 44.7004 4.99498 44.7067 5.41658L45.2184 39.9304C45.2238 40.2993 45.1254 40.6371 44.966 40.8904L44.8942 40.994C44.6967 41.2499 44.4664 41.3491 44.2725 41.3522L16.8031 41.7716C16.6334 41.7741 16.4342 41.7033 16.2495 41.5183L16.171 41.4326C15.9623 41.1782 15.8219 40.8008 15.8155 40.3793L15.3039 5.86551C15.2984 5.49658 15.3969 5.15882 15.5563 4.90549L15.628 4.80184C15.8009 4.57782 15.9989 4.47419 16.1755 4.44969L16.2497 4.44368Z" stroke="white" stroke-width="2.5"/>
</svg>
