<svg width="634" height="634" viewBox="0 0 634 634" fill="none" xmlns="http://www.w3.org/2000/svg">
<path d="M83.666 167H550.333L516.999 617H116.999L83.666 167Z" fill="#F84963" stroke="#F84963" stroke-width="33.3333" stroke-linejoin="round"/>
<path d="M450.333 83.6667H550.333C587.153 83.6667 617 113.514 617 150.333V167H17V150.333C17 113.514 46.8477 83.6667 83.6667 83.6667H183.667M450.333 83.6667L417 17H217L183.667 83.6667M450.333 83.6667H183.667Z" fill="#F84963"/>
<path d="M450.333 83.6667H550.333C587.153 83.6667 617 113.514 617 150.333V167H17V150.333C17 113.514 46.8477 83.6667 83.6667 83.6667H183.667M450.333 83.6667L417 17H217L183.667 83.6667M450.333 83.6667H183.667" stroke="#F84963" stroke-width="33.3333" stroke-linejoin="round"/>
</svg>
