<svg width="276" height="305" viewBox="0 0 276 305" fill="none" xmlns="http://www.w3.org/2000/svg">
<g opacity="0.6">
<path d="M64.5103 201.59C65.8627 199.889 66.7611 197.908 67.1303 195.815L82.1953 178.708L73.3061 172.226L58.9783 190.277C56.9707 191.257 55.2433 192.675 53.9411 194.41C50.6183 198.709 50.2858 203.804 53.2062 205.784C56.1266 207.765 61.1826 205.888 64.5058 201.59H64.5103V201.59Z" fill="#FFB6B6"/>
<path d="M125.528 133.698L106.683 121.89L68.4375 176.451L78.3958 186.474L125.528 133.698Z" fill="#D6D6E3"/>
<path d="M0.00169508 200.104C-0.0109681 200.272 0.0477003 200.438 0.164895 200.565C0.282091 200.693 0.448296 200.771 0.627237 200.784H275.363C275.539 200.763 275.701 200.682 275.818 200.557C275.935 200.432 276 200.271 276 200.104C276 199.937 275.935 199.776 275.818 199.651C275.701 199.526 275.539 199.445 275.363 199.424H0.627237C0.448296 199.437 0.282091 199.516 0.164895 199.643C0.0477003 199.77 -0.0109681 199.936 0.00169508 200.104Z" fill="#CCCCCC"/>
<path d="M93.3648 118.424L91.2622 104.841L109.83 100.412L112.298 112.432L93.3648 118.424Z" fill="#FFB6B6"/>
<path d="M37.3604 263.95L39.5646 283.231L54.7406 278.868L52.2896 263.491L37.3604 263.95Z" fill="#FFB6B6"/>
<path d="M90.9707 180.168C90.9707 180.168 41.274 189.12 35.4002 202.665C29.5265 216.209 36.3798 266.935 36.3798 266.935L53.2702 268.542L60.3683 210.239C60.3683 210.239 103.458 209.55 106.637 204.73C109.816 199.911 109.331 182.463 109.331 182.463L90.9707 180.167V180.168Z" fill="#2F2E41"/>
<path d="M37.5589 273.746L27.7156 282.915C27.7156 282.915 10.9174 295.853 21.6894 295.164C32.4614 294.475 60.369 288.279 60.1243 283.457C59.8796 278.634 55.4708 268.998 55.4708 268.998L37.5544 273.742H37.5589V273.746Z" fill="#2F2E41"/>
<path d="M94.8945 269.505L105.995 285.866L117.534 275.645L108.061 262.88L94.8945 269.505Z" fill="#FFB6B6"/>
<path d="M103.287 172.118C103.287 172.118 62.9903 200.819 64.1312 215.398C65.2721 229.977 95.4258 272.585 95.4258 272.585L111.323 266.996L90.0934 211.794C90.0934 211.794 128.382 193.25 128.949 187.608C129.515 181.967 120.825 166.537 120.825 166.537L103.283 172.118H103.287H103.287Z" fill="#2F2E41"/>
<path d="M100.038 277.113L94.4322 291.096C94.4322 291.096 86.303 309.099 95.6292 303.999C104.955 298.899 127.03 281.737 124.529 277.516C122.027 273.296 113.518 266.493 113.518 266.493L100.038 277.113Z" fill="#2F2E41"/>
<path d="M99.8711 109.095C108.217 109.095 114.983 102.752 114.983 94.9265C114.983 87.1014 108.217 80.7579 99.8711 80.7579C91.5254 80.7579 84.7598 87.1014 84.7598 94.9265C84.7598 102.752 91.5254 109.095 99.8711 109.095Z" fill="#FFB6B6"/>
<path d="M111.045 105.802L92.1937 118.888L89.2546 175.814L82.1582 182.239L106.637 204.736C106.637 204.736 133.565 196.933 130.87 184.995L128.176 173.059L129.147 159.74C130.57 140.265 124.103 121.004 111.036 105.807H111.046L111.045 105.802Z" fill="#D6D6E3"/>
<path d="M110.74 106.097L101.544 105.811C101.544 105.811 103.929 92.3011 98.2445 92.3747L93.1056 90.0823C93.1056 90.0823 80.2533 81.9626 86.147 78.557C92.0407 75.1515 96.1557 72.0966 99.5248 73.8515C102.894 75.6065 109.727 76.2906 109.727 76.2906C109.727 76.2906 121.844 81.0742 121.483 85.0735C121.123 89.0728 118.369 106.591 110.735 106.092H110.739L110.74 106.097Z" fill="#2F2E41"/>
<path d="M70.6293 202.506C71.8912 200.744 72.6856 198.725 72.9461 196.617L87.0942 178.839L77.8748 172.772L64.5149 191.46C62.5616 192.532 60.9105 194.026 59.6996 195.819C56.6031 200.269 56.5434 205.369 59.561 207.214C62.5785 209.059 67.5325 206.949 70.6289 202.504L70.6293 202.506Z" fill="#FFB6B6"/>
<path d="M128.005 131.878L108.568 120.955L73.23 177.218L83.7016 186.763L128.005 131.878Z" fill="#D6D6E3"/>
<path d="M226.836 215.924L230.986 253.187L215.162 254.378L214.257 218.212L226.836 215.924Z" fill="#FFB6B6"/>
<path d="M231.174 244.967L243.929 250.089C243.929 250.089 264.632 256.306 254.35 259.391C244.068 262.476 215.688 266.366 214.02 261.8C212.352 257.235 212.657 246.752 212.657 246.752L231.174 244.971V244.967Z" fill="#2F2E41"/>
<path d="M163.025 168.305L169.601 171.26C169.601 171.26 217.929 168.716 221.211 177.122C224.493 185.528 230.837 235.777 230.837 235.777L213.776 236.804L206.34 202.76L163.029 168.305H163.025Z" fill="#D6D6E3"/>
<path d="M208.798 178.47C207.177 176.988 205.201 175.891 203.036 175.272L186.935 159.019L178.908 166.429L196.104 182.118C196.876 184.113 198.147 185.905 199.81 187.344C203.918 191.003 209.26 191.976 211.742 189.528C214.224 187.079 212.907 182.127 208.798 178.476V178.47Z" fill="#FFB6B6"/>
<path d="M145.058 112.822L130.09 128.78L182.744 171.511L194.648 163.577L145.058 112.822Z" fill="#F84963"/>
<path d="M202.758 215.161L177.277 244.018L165.29 234.262L192.208 208.338L202.758 215.161Z" fill="#FFB6B6"/>
<path d="M183.211 236.111L188.239 248.235C188.239 248.235 197.994 266.452 188.447 261.723C178.9 256.995 156.075 240.717 158.381 236.402C160.687 232.086 168.889 224.954 168.889 224.954L183.211 236.107V236.111Z" fill="#2F2E41"/>
<path d="M134.156 179.995C134.156 179.995 124.53 201.322 140.28 201.322C156.029 201.322 192.994 200.091 192.994 200.091L182.055 218.139L194.963 224.292C194.963 224.292 222.084 200.296 220.333 189.429C218.582 178.562 169.603 171.26 169.603 171.26L159.709 173.699L134.158 179.995L134.156 179.995Z" fill="#D6D6E3"/>
<path d="M132.854 78.1584C132.854 78.1584 149.832 79.0033 151.352 85.1127C152.873 91.2222 149.393 97.4529 154.855 97.3881C160.318 97.3233 162.226 99.6023 162.226 99.6023C162.226 99.6023 156.653 114.399 147.9 115.248C139.148 116.098 132.854 78.1584 132.854 78.1584Z" fill="#2F2E41"/>
<path d="M144.24 118.966L144.768 105.246L125.797 102.726L124.725 114.921L144.24 118.966Z" fill="#FFB6B6"/>
<path d="M149.393 91.768C150.341 94.425 150.428 97.286 149.642 99.9892C148.856 102.692 147.233 105.116 144.978 106.955C142.722 108.793 139.937 109.963 136.972 110.316C134.008 110.67 130.998 110.192 128.324 108.941C125.65 107.691 123.431 105.726 121.948 103.293C120.465 100.861 119.784 98.0706 119.993 95.2756C120.201 92.4806 121.289 89.8063 123.118 87.5908C124.948 85.3754 127.437 83.7183 130.27 82.8292C134.07 81.6374 138.22 81.9096 141.806 83.5859C145.392 85.2622 148.121 88.2053 149.393 91.768Z" fill="#FFB6B6"/>
<path d="M146.809 113.593L129.443 110.201L126.209 137.402C125.382 140.418 126.981 151.874 127.831 154.881L133.062 187.876L169.603 171.255L161.28 151.922L163.087 138.012L146.805 113.593H146.809Z" fill="#F84963"/>
<path d="M155.063 150.076C152.846 150.509 150.772 151.433 149.014 152.771L125.64 156.212L127.71 166.593L151.195 161.982C153.391 162.493 155.685 162.506 157.887 162.02C163.418 160.868 167.264 157.256 166.482 153.961C165.701 150.665 160.586 148.922 155.059 150.074L155.063 150.076Z" fill="#FFB6B6"/>
<path d="M141.25 130.751L125.57 118.173L102.436 156.211C102.276 158.274 102.634 160.344 103.48 162.254C104.326 164.164 105.637 165.863 107.308 167.213C108.979 168.563 110.964 169.528 113.103 170.031C115.243 170.533 117.479 170.559 119.632 170.107L140.381 165.362L136.421 149.707L124.755 149.305L141.257 130.745H141.248L141.25 130.751Z" fill="#F84963"/>
<path d="M123.44 80.9054C123.44 80.9054 104.844 85.7107 109.063 92.6174C113.283 99.5242 118.236 101.465 117.622 105.365C117.007 109.265 121.901 124.391 129.346 122.057C136.791 119.724 147.905 115.25 147.905 115.25C147.905 115.25 132.211 102.888 134.974 100.789C137.738 98.6911 129.018 83.891 129.018 83.891C129.018 83.891 137.867 79.8787 142.558 81.0834C147.248 82.288 149.866 81.8803 149.866 81.8803C149.866 81.8803 137.086 70.6625 131.407 75.121C125.727 79.5795 123.444 80.91 123.444 80.91V80.9058L123.44 80.9054Z" fill="#2F2E41"/>
<path d="M129.4 8.93777C127.754 6.07339 124.968 3.93515 121.648 2.98928C118.328 2.04341 114.743 2.36662 111.676 3.88846C108.609 5.41029 106.309 8.00729 105.276 11.1132C104.243 14.2191 104.561 17.582 106.162 20.4687L118.497 42.2594L141.735 30.7285C143.272 29.9753 144.636 28.9443 145.747 27.695C146.858 26.4457 147.694 25.0027 148.208 23.4491C148.722 21.8955 148.903 20.262 148.741 18.6425C148.578 17.023 148.076 15.4496 147.263 14.0129C146.45 12.5761 145.341 11.3044 144.002 10.2708C142.662 9.23729 141.118 8.46237 139.457 7.99067C137.797 7.51897 136.054 7.35982 134.328 7.52236C132.602 7.6849 130.927 8.16594 129.4 8.93777Z" fill="#F84963"/>
</g>
</svg>
